<?xml version="1.0" encoding="UTF-8" standalone="no"?>
<!DOCTYPE svg PUBLIC "-//W3C//DTD SVG 1.1//EN" "http://www.w3.org/Graphics/SVG/1.1/DTD/svg11.dtd">
<!-- Created with Vectornator (http://vectornator.io/) -->
<svg width="22.4px" height="22.4px" stroke-miterlimit="10" style="fill-rule:nonzero;clip-rule:evenodd;stroke-linecap:round;stroke-linejoin:round;" version="1.1" viewBox="0 0 64 64" xml:space="preserve" xmlns="http://www.w3.org/2000/svg" xmlns:xlink="http://www.w3.org/1999/xlink">
<path d="M17.5562 0C11.0012 0 5.68997 5.31124 5.68997 11.8663C5.68997 12.7739 5.68997 47.328 5.68997 47.6596C5.68997 52.8234 9.12734 57.2616 13.9574 58.845L13.9574 61.0821C13.9574 62.6952 15.2622 64 16.8754 64C18.4885 64 19.7933 62.6952 19.7933 61.0821L19.7933 59.5258L44.2067 59.5258L44.2067 61.0821C44.2067 62.6952 45.5115 64 47.1246 64C48.7378 64 50.0426 62.6952 50.0426 61.0821L50.0426 58.845C54.8727 57.2616 58.31 52.8234 58.31 47.6596L58.31 11.8663C58.31 5.31123 52.9988 1.97885e-06 46.4438 0C45.5404-1.06581e-14 18.4596 2.96828e-06 17.5562 0ZM17.5562 4.47416L46.4438 4.47416C50.5328 4.47416 53.8358 7.77723 53.8359 11.8663L53.8359 29.1307C53.8359 30.1786 52.9871 31.0273 51.9392 31.0274L12.0608 31.0274C11.0129 31.0274 10.1641 30.1786 10.1641 29.1307C10.1641 28.2213 10.1641 12.7739 10.1641 11.8663C10.1641 7.77724 13.4672 4.47417 17.5562 4.47416ZM12.0608 35.5015L51.9392 35.5015C52.9871 35.5015 53.8358 36.3503 53.8359 37.3982L53.8359 47.6596C53.8359 51.7486 50.5328 55.1003 46.4438 55.1003L17.5562 55.1003C13.4672 55.1003 10.1641 51.7486 10.1641 47.6596C10.1641 47.328 10.1641 38.0879 10.1641 37.3982C10.1641 36.3503 11.0129 35.5015 12.0608 35.5015ZM18.2371 40.9483C15.8636 40.9483 13.9575 42.8545 13.9574 45.228C13.9574 47.6014 15.8636 49.5076 18.2371 49.5076C20.6105 49.5076 22.5167 47.6014 22.5167 45.228C22.5167 42.8545 20.6105 40.9483 18.2371 40.9483ZM45.7629 40.9483C43.3895 40.9483 41.4833 42.8545 41.4833 45.228C41.4833 47.6014 43.3895 49.5076 45.7629 49.5076C48.1364 49.5076 50.0426 47.6014 50.0426 45.228C50.0426 42.8545 48.1364 40.9483 45.7629 40.9483Z" fill-rule="nonzero" opacity="1" fill="#1f2328" stroke="none"/>
</svg>
