<?xml version="1.0" encoding="UTF-8" standalone="no"?>
<!DOCTYPE svg PUBLIC "-//W3C//DTD SVG 1.1//EN" "http://www.w3.org/Graphics/SVG/1.1/DTD/svg11.dtd">
<!-- Created with Vectornator (http://vectornator.io/) -->
<svg stroke-miterlimit="10" style="fill-rule:nonzero;clip-rule:evenodd;stroke-linecap:round;stroke-linejoin:round;" version="1.1" viewBox="0 0 512 512" xml:space="preserve" xmlns="http://www.w3.org/2000/svg" xmlns:xlink="http://www.w3.org/1999/xlink">
<defs>
<linearGradient gradientTransform="matrix(1 0 0 1 0 0)" gradientUnits="userSpaceOnUse" id="LinearGradient" x1="251.624" x2="252.851" y1="543.431" y2="-422.816">
<stop offset="0" stop-color="#14b1ff"/>
<stop offset="1" stop-color="#c7ecff"/>
</linearGradient>
</defs>
<g id="圖層1">
<path d="M0 0L512 0L512 512L0 512L0 0Z" fill="url(#LinearGradient)" fill-rule="nonzero" opacity="1" stroke="none"/>
<path d="M167.537 76.1125C133.545 76.1125 106 103.657 106 137.65L106 338.575C106 360.98 118.104 380.385 136 391.15L136 421.562C136 429.476 142.412 435.887 150.325 435.887L162.287 435.887C170.201 435.887 176.613 429.476 176.613 421.562L176.613 400.112L335.387 400.112L335.387 421.562C335.387 429.476 341.799 435.887 349.713 435.887L361.675 435.887C369.588 435.888 376 429.476 376 421.562L376 391.15C393.896 380.385 406 360.98 406 338.575L406 137.65C406 103.657 378.455 76.1125 344.462 76.1125L167.537 76.1125ZM168.962 102.513L343.037 102.513C363.225 102.513 379.6 118.888 379.6 139.075L379.6 180.85C379.6 181.854 379.379 182.791 379.3 183.775C379.368 184.277 379.6 184.717 379.6 185.237L379.6 246.137C379.6 252.387 374.525 257.462 368.275 257.463L143.725 257.463C137.475 257.463 132.4 252.387 132.4 246.137L132.4 185.237C132.4 184.717 132.632 184.277 132.7 183.775C132.621 182.791 132.4 181.854 132.4 180.85L132.4 139.075C132.4 118.888 148.775 102.513 168.962 102.513ZM143.725 277.712L168.962 277.712L343.037 277.712L368.275 277.712C374.524 277.712 379.6 282.789 379.6 289.037L379.6 312.925C379.6 313.084 379.531 313.218 379.525 313.375C379.533 313.68 379.6 313.968 379.6 314.275L379.6 337.15C379.6 357.335 363.223 373.713 343.037 373.713L168.962 373.713C148.777 373.713 132.4 357.335 132.4 337.15L132.4 314.275C132.4 313.968 132.467 313.68 132.475 313.375C132.469 313.218 132.4 313.084 132.4 312.925L132.4 289.037C132.4 282.789 137.476 277.712 143.725 277.712ZM180.4 304.112C174.378 304.112 169.289 306.223 165.1 310.412C160.911 314.602 158.8 319.691 158.8 325.712C158.8 331.734 160.911 336.823 165.1 341.012C169.289 345.202 174.378 347.312 180.4 347.312C186.422 347.312 191.511 345.202 195.7 341.012C199.889 336.823 202 331.734 202 325.712C202 319.691 199.889 314.602 195.7 310.412C191.511 306.223 186.422 304.113 180.4 304.112ZM331.6 304.112C325.578 304.112 320.489 306.223 316.3 310.412C312.111 314.602 310 319.691 310 325.712C310 331.734 312.111 336.823 316.3 341.012C320.489 345.202 325.578 347.312 331.6 347.312C337.622 347.312 342.711 345.202 346.9 341.012C351.089 336.823 353.2 331.734 353.2 325.712C353.2 319.691 351.089 314.602 346.9 310.412C342.711 306.223 337.622 304.113 331.6 304.112Z" fill="#fafcff" fill-rule="nonzero" opacity="1" stroke="none"/>
</g>
</svg>
